<?xml version="1.0" encoding="UTF-8"?>
<svg id="Camada_1" xmlns="http://www.w3.org/2000/svg" version="1.1" viewBox="0 0 663.75 316.5">
  <!-- Generator: Adobe Illustrator 29.6.1, SVG Export Plug-In . SVG Version: 2.1.1 Build 9)  -->
  <defs>
    <style>
      .st0 {
        fill: none;
      }

      .st1 {
        fill: #bc150d;
      }

      .st2 {
        fill: #fce33e;
      }
    </style>
  </defs>
  <path class="st0" d="M663.75,0v316.5H0V0h663.75ZM412.5,12.76c-1.68.13-4.76-3.64-5.63-3.63-.8,0-9.02,9.74-10.08,11.41.16.74,3.98,3.51,4.74,3.38,1.14-.2,9.47-9.53,10.98-11.16ZM330,27c-1.69.19-9.75-.71-9.75,1.12v46.12c1.69-.19,9.75.71,9.75-1.12V27ZM379.19,31.83c-20.37-16.28-46.3,7.33-34.35,30.95,7.06,13.95,31.92,15.3,38.39.25l-7.13-4.57c-.54-.08-5.24,5.01-7.83,5.69-19.97,5.27-21.44-26-7.08-28.08,4.9-.71,8.16-.19,11.93,2.93,1.14.94,1.82,2.82,1.97,2.9,1.68,1,6.51-3.77,8.16-4.81.18-.75-3.18-4.57-4.06-5.26ZM405,27h-9.75v46.5h9.75V27ZM535.99,33.26c-12.24-12.31-35.91-6.59-38.54,11.56s8.28,31.1,27.12,28.62c17.67-2.33,23.12-28.41,11.42-40.17ZM551.68,67.04c10.3,12.25,35.55,8.08,32.39-10.24-1.95-11.32-17.33-10.01-20.73-15.27-2.24-3.47,1.31-6.82,4.85-6.98,3.79-.16,10.49,4.47,11.08,4.37.45-.08,4.85-4.47,4.93-4.9.43-2.47-8.07-6.47-10.25-6.84-10.98-1.86-22.32,2.06-20.38,15.13,1.71,11.5,19.17,10.63,20.78,15.98.73,2.43.02,4.47-2.16,5.78-7.44,4.45-14.35-3.95-16.72-3.25-.36.11-4.87,5-4.97,5.58-.01.56.83.25,1.18.66ZM198,27.75h-9v45.75h29.25v-9h-19.12c-.08,0-1.12-1.05-1.12-1.12V27.75ZM252.63,27.88c-.66-.41-9.16-.36-9.71.34l-17.17,45.28c2.48-.32,8.07.74,10.02-.68.71-.52,2.64-7.88,3.39-9.38l18.01-.37c.33,1.41,2.75,9.98,3.16,10.33.66.58,7.99-.23,9.66.08-2.59-5.26-15.29-44.34-17.37-45.62ZM294.75,36h13.88c1.54,0,.3-3.09.3-4.13s1.24-4.12-.3-4.12h-37.12v8.25h14.25v36.75h9v-36.75ZM420.75,27.75v45.75h9.75v-28.5l19.82,27.8c2.06,1.5,6.12.37,8.68.7V27.75h-9v28.5l-19.65-28.34-9.6-.16ZM483.75,27.75h-9v45h9V27.75ZM161.25,71.25c-13.22.26-26.41,2.3-38.97,6.4-20.58,6.72-47.48,22.73-54.26,44.74-5.43,17.63,1.26,36.75,22.73,32.1-9.59-27.4,3.32-53.1,29.49-63.87,1.33-.55,3.73-1.93,5.02-.99l-33.55,150.2c-5.46,8.66-3.87,20.39-10.01,28.06s-14.65,11.4-24.14,7.16c-12.31-5.51-6.49-24.8,5.85-26.76,5.45-.86,8.99,1.36,13.82,2.94,7.18-20.57-17.79-26.72-32.46-17.84-27.39,16.56-16.83,56.5,16.32,59.13,38.44,3.05,60.86-31.57,66.78-65.27l33.37-156.01ZM606.75,114.75l-5.4-18.96c-1.68-3.29-5.47.54-7.36,2.08-4.54,3.7-10.34,9.03-14.63,13.12-1.18,1.12-2.96,2.53-3.36,4.14,5.36,1.88,16.3-8.33,20.61-7.89,3.37.34,4.86,9.5,10.15,7.52ZM426,131.25h-31.5c-.39,0-.38,6.65-1.87,7.5-12.57-16.96-39.42-9.73-52.89,2.62-19.64,18-24.8,41.79-28.54,66.71-.52,3.45-8.37,11.53-11.39,13.36-8,4.85-17.32,3.74-17.09-7.27l15.69-71.98,17.3-.48,1.54-10.46h-16.5c1.3-10.85,6.22-22.8,7.47-33.42.17-1.44.05-.99-1.11-1.11-10.43,1.79-21.16,2.15-31.5,4.51-2.01,3.51-6.01,28.94-7.18,29.94-.66.56-7.59-.23-9.22.03-.73.2-2.53,9.97-1.96,10.55h8.26c.53.54-2.03,13.62-2.67,14.96-1.62,3.39-19.43,11.77-21.33,9.8-.61-16.46-6.73-35.87-25.85-37.53-38.4-3.33-61.68,34.11-67.68,67.37-4.3,23.82,2.58,47.47,30.17,49.64,37.33,2.95,58.77-34.18,62.8-66.55l18.18-9.2c-.84,19.19-16.73,49.21-4.45,66.71,11.11,15.83,34.86,8.09,47.18-2.22,1.96-1.64,10.38-11.24,11.26-11.24,9.98,30.75,48.76,30.38,62.27,2.25l4.24,10.01c11.59,16.05,32.33,11.23,45.64.13,1.78-1.48,10.79-11.64,11.61-11.64,13.77,31.74,50.65,24.87,73.82,7.82,2.35-1.73,5.04-3.96,7.28-5.85,1.7-1.43,6.98-7.44,8.17-7.95,1.37-.59.97.57,1.13,1.09,12.46,40.68,55.59,30.02,80.28,6.8,2.15-2.02,14.97-16.67,14.99-18.03.02-1.56-3.1-3.82-4.53-3.06-.76.4-7.26,8.39-9.4,10.16-10.26,8.49-28,15.29-40.85,9.4-9.9-4.54-9.23-15.84-9.01-25.13.45-.43,9.8-.1,11.64-.68,10.08-3.17,25.17-12.01,32.63-19.92,13.73-14.55,20.88-44.49-5.23-49.56-38.59-7.49-65.47,30.49-71.09,63.99-.51,3.02-.56,12.05-1.16,13.49-.21.5-6.67,6.8-7.69,7.67-13.08,11.14-43.17,22.87-48.77-1.44-3.86-16.78,6.84-58.25,21.46-68.62,4.21-2.99,4.89-1.84,9.34-1.86,2.9-.01,4.99-2.06,7.16,1.78,1.14,2.01.97,6.49.54,8.86-.78,4.29-4.75,5.19-1.55,10.84,1.42,2.51,5.98,3.44,8.65,3.05,9.94-1.45,11.6-16.03,9.21-23.85-5.23-17.09-28.43-16.62-42.23-12.2-27.83,8.93-43.68,42.86-47.32,70.43-.38,2.91.53,6.69-.5,9.25-1.33,3.31-10.91,12.35-14.54,13.2s-8.91.78-10.22-3.39c-2.28-7.3,4.02-31.32,5.88-39.95,3.54-16.46,8.45-32.71,11.03-49.34Z"/>
  <path class="st1" d="M426,131.25c-2.59,16.64-7.49,32.89-11.03,49.34-1.86,8.63-8.16,32.65-5.88,39.95,1.3,4.17,6.69,4.22,10.22,3.39s13.21-9.89,14.54-13.2c1.03-2.55.12-6.34.5-9.25,3.63-27.57,19.49-61.51,47.32-70.43,13.8-4.43,36.99-4.89,42.23,12.2,2.39,7.82.73,22.4-9.21,23.85-2.68.39-7.23-.54-8.65-3.05-3.21-5.65.77-6.55,1.55-10.84.43-2.37.6-6.85-.54-8.86-2.17-3.83-4.25-1.79-7.16-1.78-4.45.02-5.12-1.13-9.34,1.86-14.62,10.37-25.33,51.84-21.46,68.62,5.6,24.31,35.69,12.59,48.77,1.44,1.01-.86,7.48-7.17,7.69-7.67.6-1.44.65-10.46,1.16-13.49,5.62-33.51,32.5-71.49,71.09-63.99,26.1,5.07,18.95,35.01,5.23,49.56-7.46,7.91-22.56,16.76-32.63,19.92-1.84.58-11.19.24-11.64.68-.22,9.28-.89,20.59,9.01,25.13,12.85,5.89,30.59-.9,40.85-9.4,2.13-1.77,8.64-9.76,9.4-10.16,1.43-.76,4.55,1.49,4.53,3.06-.02,1.36-12.84,16.01-14.99,18.03-24.69,23.22-67.82,33.88-80.28-6.8-.16-.52.24-1.68-1.13-1.09-1.18.51-6.47,6.52-8.17,7.95-2.25,1.89-4.94,4.12-7.28,5.85-23.16,17.05-60.05,23.92-73.82-7.82-.82,0-9.83,10.16-11.61,11.64-13.3,11.1-34.05,15.92-45.64-.13l-4.24-10.01c-13.51,28.13-52.29,28.5-62.27-2.25-.88,0-9.3,9.59-11.26,11.24-12.32,10.31-36.07,18.05-47.18,2.22-12.29-17.5,3.61-47.52,4.45-66.71l-18.18,9.2c-4.03,32.37-25.47,69.49-62.8,66.55-27.59-2.18-34.47-25.83-30.17-49.64,6.01-33.26,29.28-70.7,67.68-67.37,19.12,1.66,25.24,21.07,25.85,37.53,1.9,1.98,19.71-6.4,21.33-9.8.64-1.34,3.2-14.42,2.67-14.96h-8.26c-.57-.57,1.24-10.35,1.96-10.54,1.63-.26,8.55.53,9.22-.03,1.17-1,5.18-26.43,7.18-29.94,10.34-2.36,21.08-2.72,31.5-4.51,1.16.12,1.28-.33,1.11,1.11-1.26,10.61-6.18,22.57-7.47,33.42h16.5l-1.54,10.46-17.3.48-15.69,71.98c-.23,11.01,9.09,12.12,17.09,7.27,3.02-1.83,10.87-9.91,11.39-13.36,3.74-24.92,8.9-48.71,28.54-66.71,13.47-12.35,40.31-19.58,52.89-2.62,1.49-.84,1.48-7.5,1.87-7.5h31.5ZM585.49,178.24c5.07-4.83,9.25-11.93,10.87-18.76,1.93-8.14,4.06-22.91-9.08-18.08-11.47,4.22-24.64,34.92-26.19,46.56-.18,1.32-.58,1.88,1.06,1.81,6.3-.28,18.72-7.12,23.36-11.53ZM209.05,142.68c-15.74,2.93-27.22,42.12-28.94,55.81-1.36,10.83-2.91,29.72,13.02,28.02,13.11-1.41,24.12-27.01,27.01-38.24.3-1.17,1.85-7.43,1.75-7.82-.32-1.34-7.36-3.02-7.41-8.3-.02-1.77,2.76-10.24,3.62-12.17,1.68-3.81,5.09-4.42,4.5-8.65-.99-7.18-6.81-9.9-13.55-8.64ZM374.81,143.43c-14.77,2.51-26.62,33.96-28.85,46.9-1.78,10.3-4.65,32.91,10.14,34.5,10.3,1.11,18.01-9.23,21.72-17.64l12.24-56.8c-1.29-7.59-8.84-8.05-15.24-6.96Z"/>
  <path class="st1" d="M161.25,71.25l-33.37,156.01c-5.92,33.69-28.34,68.32-66.78,65.27-33.15-2.63-43.72-42.57-16.32-59.13,14.67-8.87,39.64-2.73,32.46,17.84-4.82-1.59-8.37-3.81-13.82-2.94-12.34,1.95-18.16,21.25-5.85,26.76,9.49,4.25,18.05.46,24.14-7.16s4.55-19.4,10.01-28.06l33.55-150.2c-1.29-.94-3.68.44-5.02.99-26.17,10.77-39.08,36.47-29.49,63.87-21.47,4.65-28.16-14.46-22.73-32.1,6.78-22.01,33.68-38.03,54.26-44.74,12.56-4.1,25.75-6.15,38.97-6.4Z"/>
  <path class="st2" d="M420.75,27.75l9.6.16,19.65,28.34v-28.5h9v45.75c-2.56-.33-6.62.8-8.68-.7l-19.82-27.8v28.5h-9.75V27.75Z"/>
  <path class="st2" d="M535.99,33.26c11.7,11.76,6.25,37.84-11.42,40.17-18.83,2.48-29.77-10.27-27.12-28.62s26.3-23.86,38.54-11.56ZM515.05,36.17c-10.86,2.21-11.95,26.12,1.37,28.28,20.47,3.32,20.26-26.72,5.98-28.47-1.87-.23-5.51-.18-7.35.19Z"/>
  <path class="st2" d="M252.63,27.88c2.08,1.28,14.78,40.36,17.37,45.62-1.68-.32-9,.5-9.66-.08-.41-.36-2.83-8.92-3.16-10.33l-18.01.37c-.75,1.5-2.68,8.86-3.39,9.38-1.95,1.42-7.54.36-10.02.68l17.17-45.28c.54-.7,9.04-.75,9.71-.34ZM253.5,54.75c-1.92-4.58-2.96-10.43-5.99-14.25l-5.26,14.25h11.25Z"/>
  <path class="st2" d="M379.19,31.83c.87.7,4.24,4.51,4.06,5.26-1.64,1.04-6.47,5.81-8.16,4.81-.15-.09-.83-1.96-1.97-2.9-3.77-3.12-7.04-3.64-11.93-2.93-14.37,2.08-12.89,33.35,7.08,28.08,2.59-.68,7.28-5.78,7.83-5.69l7.13,4.57c-6.47,15.05-31.32,13.7-38.39-.25-11.95-23.61,13.97-47.23,34.35-30.95Z"/>
  <path class="st2" d="M551.68,67.04c-.35-.41-1.19-.1-1.18-.66.1-.58,4.61-5.47,4.97-5.58,2.37-.7,9.28,7.7,16.72,3.25,2.19-1.31,2.9-3.35,2.16-5.78-1.61-5.34-19.07-4.48-20.78-15.98-1.95-13.07,9.4-16.99,20.38-15.13,2.18.37,10.68,4.37,10.25,6.84-.07.43-4.48,4.83-4.93,4.9-.59.1-7.29-4.53-11.08-4.37-3.54.15-7.09,3.51-4.85,6.98,3.4,5.26,18.78,3.96,20.73,15.27,3.16,18.32-22.09,22.49-32.39,10.24Z"/>
  <path class="st2" d="M294.75,36v36.75h-9v-36.75h-14.25v-8.25h37.12c1.54,0,.3,3.09.3,4.12s1.24,4.13-.3,4.13h-13.88Z"/>
  <path class="st2" d="M198,27.75v35.62c0,.08,1.05,1.12,1.12,1.12h19.12v9h-29.25V27.75h9Z"/>
  <path class="st2" d="M330,27v46.12c0,1.84-8.06.94-9.75,1.12V28.12c0-1.84,8.06-.94,9.75-1.12Z"/>
  <rect class="st2" x="395.25" y="27" width="9.75" height="46.5"/>
  <rect class="st2" x="474.75" y="27.75" width="9" height="45"/>
  <path class="st1" d="M606.75,114.75c-5.29,1.97-6.78-7.18-10.15-7.52-4.31-.44-15.24,9.77-20.61,7.89.41-1.61,2.18-3.02,3.36-4.14,4.29-4.08,10.1-9.41,14.63-13.12,1.89-1.54,5.67-5.37,7.36-2.08l5.4,18.96Z"/>
  <path class="st2" d="M412.5,12.76c-1.52,1.63-9.84,10.96-10.98,11.16-.76.13-4.58-2.64-4.74-3.38,1.06-1.67,9.28-11.41,10.08-11.41.87,0,3.96,3.76,5.63,3.63Z"/>
</svg>